# xmcd CD database file
#
# Track frame offsets:
#	150
#	11014
#	22408
#	37431
#	54787
#	73662
#	95386
#	106125
#	125000
#	142552
#	157087
#	176234
#	196739
#	205346
#	217973
#
# Disc length: 3137 seconds
#
# Revision: 0
# Processed by: cddbd v1.5.1PL2 Copyright (c) Steve Scherf et al.
# Submitted via: CDex 1.70beta2
#
DISCID=d80c3f0f
DTITLE=Dixie Cats, The - North of Canal Street
DYEAR=2004
DGENRE=Jazz
TTITLE0=In The Good Ol' Summertime
TTITLE1=That's a Plenty
TTITLE2=Dixie DOwn Beat
TTITLE3=Bill Baily Wont You Please Come Home
TTITLE4=Do You Know What It Means to Miss New Orleans
TTITLE5=Clarinet Marmalade
TTITLE6=Dixie3land Holdiay
TTITLE7=At the Jazz Band Ball
TTITLE8=Beale Street Mama
TTITLE9=Muskrat Rumble
TTITLE10=New Orleans Masquerade
TTITLE11=Bluin' the Blues
TTITLE12=Tiger Rag
TTITLE13=When the Saints
TTITLE14=Dixie Cats Blues
EXTD=YEAR: 2004
EXTT0=
EXTT1=
EXTT2=
EXTT3=
EXTT4=
EXTT5=
EXTT6=
EXTT7=
EXTT8=
EXTT9=
EXTT10=
EXTT11=
EXTT12=
EXTT13=
EXTT14=
PLAYORDER=
